:version 1.10
:name ASF
:units
  mass 1
  length 1
  angle deg
:documentation
  ASF file generated by Kaydara
:root
  axis xyz
  order  tx ty tz rx ry rz
  position 0 0 0
  orientation 0 0 0
:bonedata
  begin
    id 1
    name RightUpLegDummy
    direction -0.718183 -0.695806 0.00816078
    length 4.904
    axis 0 0 0 xyz
  end
  begin
    id 2
    name RightUpLeg
    direction 3.53989e-006 -0.995788 0.0916897
    length 17.4976
    axis -3.49089 -0.000906621 0.000287158 xyz
    dof rx ry rz
  end
  begin
    id 3
    name RightLeg
    direction 0.00371093 -0.995096 -0.0988418
    length 16.5821
    axis 3.68512 0.0193738 -0.131023 xyz
    dof rx ry rz
  end
  begin
    id 4
    name RightFoot
    direction 0.000791514 -0.46099 0.887405
    length 3.77069
    axis 4.84075e-005 -0.120479 -0.188788 xyz
    dof rx ry rz
  end
  begin
    id 5
    name RightToes
    direction 0.00124746 -0.014064 0.9999
    length 3.85082
    axis 0.00048216 0.542163 -0.142577 xyz
    dof rx ry rz
  end
  begin
    id 6
    name SpineDummy
    direction 8.36599e-015 1 5.97571e-016
    length 4.6813
    axis 0 0 0 xyz
  end
  begin
    id 7
    name Spine
    direction -4.63632e-008 0.999988 0.00495137
    length 10.1015
    axis -0.00138897 0.000121419 3.25764e-006 xyz
    dof rx ry rz
  end
  begin
    id 8
    name Spine1
    direction 0 0 0
    length 0
    axis -0.00138896 0.000121452 2.39764e-006 xyz
    dof rx ry rz
  end
  begin
    id 9
    name HEadDummy
    direction -3.91456e-008 0.999999 0.00127422
    length 3.43865
    axis -0.00138896 0.000121452 2.39764e-006 xyz
  end
  begin
    id 10
    name HEad
    direction -0.0222688 0.980941 0.193023
    length 5.12695
    axis -0.00138895 0.000121452 2.39764e-006 xyz
    dof rx ry rz
  end
  begin
    id 11
    name LeftShoulder1Dummy
    direction 0.998891 -0.0402508 -0.0244456
    length 3.5433
    axis -0.00138896 0.000121452 2.39764e-006 xyz
  end
  begin
    id 12
    name LeftShoulder1
    direction 0.99951 -0.000327743 0.0313091
    length 4.05031
    axis -0.00138896 0.000121452 2.39764e-006 xyz
    dof rx ry rz
  end
  begin
    id 13
    name LeftArm
    direction 0.998561 -0.00100054 -0.0536182
    length 10.3537
    axis -23.1894 0.134784 0.96751 xyz
    dof rx ry rz
  end
  begin
    id 14
    name LeftForeArm
    direction 0.998903 0.00866434 0.046012
    length 8.70632
    axis -9.91835 -0.06569 -0.177792 xyz
    dof rx ry rz
  end
  begin
    id 15
    name LeftHand
    direction 0.992938 -0.0411636 0.11126
    length 5.32135
    axis -0.00960227 -0.00340091 0.185174 xyz
    dof rx ry rz
  end
  begin
    id 16
    name RightShoulderDummy
    direction -0.998891 -0.0402509 -0.0244414
    length 3.5433
    axis -0.00138896 0.000121452 2.39764e-006 xyz
  end
  begin
    id 17
    name RightShoulder
    direction -0.99951 -0.000327827 0.0313133
    length 4.05031
    axis 0.215806 0.000203644 -0.00680151 xyz
    dof rx ry rz
  end
  begin
    id 18
    name RightArm
    direction -0.998573 -0.000999583 -0.053403
    length 10.3947
    axis -23.2009 -0.134239 -0.9641 xyz
    dof rx ry rz
  end
  begin
    id 19
    name RightForeArm
    direction -0.998898 0.00868026 0.0461306
    length 8.68355
    axis -9.92322 0.0658061 0.178869 xyz
    dof rx ry rz
  end
  begin
    id 20
    name RightHand
    direction -0.992843 -0.0414603 0.112003
    length 5.28593
    axis -0.00960634 0.00330671 -0.185226 xyz
    dof rx ry rz
  end
  begin
    id 21
    name LeftUpLegDummy
    direction 0.718183 -0.695806 0.00816078
    length 4.904
    axis 0 0 0 xyz
  end
  begin
    id 22
    name LeftUpLeg
    direction -6.8115e-006 -0.995793 0.0916336
    length 17.4976
    axis -3.48766 0.00143441 -0.000523914 xyz
    dof rx ry rz
  end
  begin
    id 23
    name LeftLeg
    direction -0.00601357 -0.995091 -0.0987824
    length 16.5821
    axis 3.68177 -0.00654038 -0.00028478 xyz
    dof rx ry rz
  end
  begin
    id 24
    name LeftFoot
    direction -0.00417578 -0.460984 0.887399
    length 3.77069
    axis 1.87232e-006 4.66002e-005 -8.1837e-006 xyz
    dof rx ry rz
  end
  begin
    id 25
    name LeftToes
    direction 0.00818058 -0.00485161 0.999955
    length 3.85048
    axis 1.06246e-005 4.65855e-005 -8.18502e-006 xyz
    dof rx ry rz
  end
:hierarchy
  begin
    root RightUpLegDummy SpineDummy LeftUpLegDummy
    RightUpLegDummy RightUpLeg
    RightUpLeg RightLeg
    RightLeg RightFoot
    RightFoot RightToes
    SpineDummy Spine
    Spine Spine1
    Spine1 HEadDummy LeftShoulder1Dummy RightShoulderDummy
    HEadDummy HEad
    LeftShoulder1Dummy LeftShoulder1
    LeftShoulder1 LeftArm
    LeftArm LeftForeArm
    LeftForeArm LeftHand
    RightShoulderDummy RightShoulder
    RightShoulder RightArm
    RightArm RightForeArm
    RightForeArm RightHand
    LeftUpLegDummy LeftUpLeg
    LeftUpLeg LeftLeg
    LeftLeg LeftFoot
    LeftFoot LeftToes
  end

:SAMPLES-PER-SECOND 30
:FULLY-SPECIFIED
:DEGREES
1
root  -1.43268 40.8739 0.8423 175.281 -88.1069 -176.118
RightUpLeg  1.42531 -1.24086 -1.90627
RightLeg  0.198622 -18.0458 -0.489208
RightFoot  0.34945 -0.398407 4.01443
RightToes  -3.11842e-008 1.75238e-005 3.56266e-009
Spine  2.91792 -2.46484 -9.52027
Spine1  -2.68868 -5.15885 17.6347
HEad  -5.46851 6.07635 -7.78055
LeftShoulder1  -1.09761 8.06252 -17.2933
LeftArm  -49.8625 -3.57633 12.7902
LeftForeArm  57.4932 4.507 3.7957
LeftHand  -0.039135 -3.13196 0.766368
RightShoulder  0.00776253 -3.52602 -18.676
RightArm  -46.9195 14.9542 12.7244
RightForeArm  35.0295 -5.13511 -3.3072
RightHand  0.132451 2.84093 1.64967
LeftUpLeg  -0.267442 0.125795 0.948569
LeftLeg  2.94038 15.598 0.657124
LeftFoot  -2.38733 0.129019 -1.46365
LeftToes  4.7713e-008 1.46693e-008 1.32589e-009
2
root  -1.45267 40.8739 0.8423 175.647 -88.2006 -176.516
RightUpLeg  1.48241 -1.27877 -1.93737
RightLeg  0.245927 -18.0918 -0.50399
RightFoot  0.279459 -0.400711 4.05019
RightToes  -3.11842e-008 1.75238e-005 3.56266e-009
Spine  2.4332 -2.52484 -9.60891
Spine1  -2.0131 -5.29957 17.7064
HEad  -5.5788 6.14332 -7.90205
LeftShoulder1  -1.09761 8.06035 -17.2659
LeftArm  -50.1709 -3.68947 12.5955
LeftForeArm  57.5532 4.45591 4.07636
LeftHand  -0.0349057 -3.12613 0.708676
RightShoulder  -0.00203318 -3.40262 -18.7354
RightArm  -46.8227 14.9215 12.7862
RightForeArm  34.5033 -5.16034 -3.21181
RightHand  0.125955 2.72531 1.57986
LeftUpLeg  -0.191824 0.119525 0.918058
LeftLeg  2.90272 15.5108 0.635179
LeftFoot  -2.34354 0.111172 -1.23912
LeftToes  4.7713e-008 1.46693e-008 1.32589e-009
3
root  -1.48037 40.8739 0.8423 175.823 -88.2855 -176.671
RightUpLeg  1.46097 -1.31633 -1.96168
RightLeg  0.369982 -18.1226 -0.537239
RightFoot  0.183986 -0.404698 4.11209
RightToes  -3.11842e-008 1.75238e-005 3.56266e-009
Spine  2.58586 -2.54062 -9.34972
Spine1  -2.40107 -5.22623 17.4788
HEad  -5.37605 6.31729 -7.94921
LeftShoulder1  -1.10139 8.09526 -17.1959
LeftArm  -50.1852 -3.65271 12.4741
LeftForeArm  57.5937 4.44726 4.11813
LeftHand  -0.023512 -3.08396 0.554731
RightShoulder  -0.0269752 -3.0926 -18.828
RightArm  -47.0005 14.7316 13.0214
RightForeArm  35.6152 -5.0973 -3.46813
RightHand  0.181357 3.79845 2.03474
LeftUpLeg  -0.0745913 0.14482 0.890623
LeftLeg  2.6766 15.4141 0.521633
LeftFoot  -2.08478 0.0427605 -0.370297
LeftToes  4.7713e-008 1.46693e-008 1.32589e-009
4
root  -1.50594 40.8739 0.842797 175.204 -88.4719 -176.072
RightUpLeg  1.55878 -1.3011 -1.93894
RightLeg  0.350274 -18.3188 -0.561874
RightFoot  0.153417 -0.400288 4.04363
RightToes  -3.11842e-008 1.75238e-005 3.56266e-009
Spine  2.28732 -2.58468 -9.44165
Spine1  -2.04153 -5.33742 17.679
HEad  -5.47839 6.2842 -8.0253
LeftShoulder1  -1.06501 7.89562 -17.4809
LeftArm  -49.8283 -3.47656 12.826
LeftForeArm  57.135 4.52489 3.75868
LeftHand  -0.0412391 -2.94268 0.798511
RightShoulder  -0.0483329 -2.83949 -19.0047
RightArm  -46.84 14.5166 13.0169
RightForeArm  35.6707 -5.11154 -3.38109
RightHand  0.188492 3.88692 2.09138
LeftUpLeg  -0.0475879 0.170266 0.911638
LeftLeg  2.70078 15.1962 0.496872
LeftFoot  -2.11268 0.0491755 -0.453826
LeftToes  4.7713e-008 1.46693e-008 1.32589e-009
5
root  -1.53521 40.8739 0.83964 175.831 -88.697 -176.695
RightUpLeg  1.65094 -1.31524 -1.95499
RightLeg  0.316488 -18.5299 -0.574946
RightFoot  0.101392 -0.401308 4.05946
RightToes  -3.11842e-008 1.75238e-005 3.56266e-009
Spine  1.94327 -2.67051 -9.60528
Spine1  -1.6124 -5.51178 17.9642
HEad  -5.55012 6.22185 -8.21645
LeftShoulder1  -1.05032 7.78967 -17.7601
LeftArm  -50.0025 -3.45011 13.0025
LeftForeArm  57.6808 4.47687 3.93352
LeftHand  -0.0589896 -3.76576 1.00607
RightShoulder  -0.0653362 -2.64787 -19.202
RightArm  -46.6705 14.3507 12.9913
RightForeArm  35.0048 -5.14879 -3.2317
RightHand  0.172938 3.3995 2.03926
LeftUpLeg  -0.0115631 0.120477 0.871088
LeftLeg  2.65281 15.024 0.505139
LeftFoot  -2.07525 0.0596103 -0.589226
LeftToes  4.7713e-008 1.46693e-008 1.32589e-009
6
root  -1.5756 40.8739 0.836628 176.607 -88.9441 -177.466
RightUpLeg  1.75017 -1.37285 -1.99981
RightLeg  0.309838 -18.6901 -0.564575
RightFoot  0.055948 -0.402676 4.08069
RightToes  -3.11842e-008 1.75238e-005 3.56266e-009
Spine  1.84402 -2.7178 -9.62756
Spine1  -1.57351 -5.57161 18.0626
HEad  -5.34968 5.92844 -8.24626
LeftShoulder1  -1.02227 7.65473 -17.8919
LeftArm  -49.876 -3.32576 13.24
LeftForeArm  57.862 4.48848 3.8338
LeftHand  -0.0811087 -4.1786 1.26678
RightShoulder  -0.066547 -2.63279 -19.1865
RightArm  -47.302 14.5898 13.1001
RightForeArm  35.7455 -5.04946 -3.7281
RightHand  0.19208 3.81815 2.1599
LeftUpLeg  0.0797134 0.0975746 0.85002
LeftLeg  2.51997 14.801 0.453854
LeftFoot  -2.02824 0.0681076 -0.70701
LeftToes  4.7713e-008 1.46693e-008 1.32589e-009
